<svg id="圖層_1" data-name="圖層 1" xmlns="http://www.w3.org/2000/svg" viewBox="0 0 230.69 231.95"><defs><style>.cls-1,.cls-2,.cls-3,.cls-4{stroke:#000;stroke-miterlimit:10;}.cls-2,.cls-3{fill:none;}.cls-3,.cls-4{stroke-width:3px;}</style></defs><title>向下</title><ellipse class="cls-1" cx="116.94" cy="157.77" rx="23.49" ry="30.2"/><path class="cls-2" d="M124.83,157.44a112.72,112.72,0,0,1-14.77-23.83C94.76,100.15,99.82,66.94,103,46a220.81,220.81,0,0,1,6.71-29.87" transform="translate(-21.64 -7.05)"/><path class="cls-2" d="M126.5,146.7a160.6,160.6,0,0,1,0-32.22c.91-8.91,2.76-25.89,11.08-44.29,11.27-24.92,29-40.59,40.6-49" transform="translate(-21.64 -7.05)"/><path class="cls-2" d="M138.92,141.33a186.75,186.75,0,0,0,.67-32.55c-.86-12.9-2.52-34.62-14.09-59.06A144.34,144.34,0,0,0,96,8.44" transform="translate(-21.64 -7.05)"/><path class="cls-2" d="M145,148.38a65.52,65.52,0,0,1,7.72-25.84c9-16.33,22.36-22.53,30.2-28.86,12.39-10,24.33-31.05,21.14-79.87" transform="translate(-21.64 -7.05)"/><path class="cls-2" d="M145.3,154.42c15.88,1.17,27.32-2.24,34.89-5.71C216.67,132,236.55,80.3,229.52,19.52" transform="translate(-21.64 -7.05)"/><path class="cls-2" d="M149.32,149.05c9.36-2.83,15.42-7.21,19.47-11.41,21.57-22.42,16.07-71.21-14.1-121.14" transform="translate(-21.64 -7.05)"/><path class="cls-2" d="M126.17,150.39c-.31-7-1.89-17.12-8.73-25.5-15-18.41-40.53-10.41-58-21.15C45,94.91,32.46,71.22,39.26,7.1" transform="translate(-21.64 -7.05)"/><path class="cls-2" d="M123.48,169.52A110.93,110.93,0,0,1,90.93,145C45.84,95.37,64.22,20.84,66.77,11.13" transform="translate(-21.64 -7.05)"/><path class="cls-1" d="M123.82,171.53c0-2.21-23,3.07-48.66-9.4-36.37-17.67-46.81-55.75-51.34-53.69-4.33,2-1.62,39.67,24.16,59.06C78.49,190.45,123.87,174.64,123.82,171.53Z" transform="translate(-21.64 -7.05)"/><path class="cls-1" d="M146.94,171.48c.17-2.21,22.77,4.43,49.13-6.49,37.36-15.48,50-52.87,54.44-50.54,4.2,2.22-.74,39.69-27.63,57.52C191.06,193.06,146.7,174.58,146.94,171.48Z" transform="translate(-21.64 -7.05)"/><path class="cls-3" d="M129.86,187.3c-2.51,3.36-5.93,6.52-10.4,7.38-14.87,2.86-31.43-21.63-37.92-36.57C68.42,127.94,79.19,97.31,83.89,86" transform="translate(-21.64 -7.05)"/><path class="cls-3" d="M132.88,190.32a24.68,24.68,0,0,1-5.37,13.09c-2.2,2.67-4.46,5.42-6.71,5.37-7.35-.15-14.65-30.08-15.44-55.37-.44-14.18.9-35.49,10.41-61.07" transform="translate(-21.64 -7.05)"/><path class="cls-3" d="M141.6,192.34c.18,8,3,14.41,7.39,15.77,6.46,2,14-7.76,15.77-10.07,17.57-22.8,5.76-59.81,2.68-69.46A128.07,128.07,0,0,0,150,93.68" transform="translate(-21.64 -7.05)"/><path class="cls-3" d="M145.63,187.64a25.5,25.5,0,0,0,8.05,4s11.82,3.42,28.19-6.37C198,175.62,211.64,140,214.42,92.34" transform="translate(-21.64 -7.05)"/><circle class="cls-4" cx="116.1" cy="213.43" r="7.89"/><path class="cls-4" d="M126.17,220.48s-3.46-4-4.84-4.45-6.24-2.29-6.24-2.29" transform="translate(-21.64 -7.05)"/><polyline class="cls-4" points="127.68 213.43 131.33 210.06 137.29 207.84"/><line class="cls-4" x1="105.88" y1="221.32" x2="101.84" y2="226.87"/><path class="cls-4" d="M140,232.31s-.59,5.05,0,5.51" transform="translate(-21.64 -7.05)"/><line class="cls-4" x1="125.29" y1="221.32" x2="130.3" y2="226.87"/></svg>