<svg id="圖層_1" data-name="圖層 1" xmlns="http://www.w3.org/2000/svg" viewBox="0 0 229.02 250.1"><defs><style>.cls-1,.cls-2,.cls-3,.cls-4{stroke:#000;stroke-miterlimit:10;}.cls-2{fill:#fff;}.cls-3,.cls-4{fill:none;}.cls-4{stroke-width:3px;}</style></defs><title>向上</title><path class="cls-1" d="M148,60.8c-1,3.14-4.2,8-9.37,8.25A9.21,9.21,0,0,1,130.36,65c-2.07-3.38-.84-7.17-.54-8.08a13.68,13.68,0,0,1,1.6-3.1c3.05-4.88,5.18-8.31,8.71-9,1.73-.34,4-.06,4.53,1,.36.76-.22,1.63.29,2.13s1.49-.27,2.34.09c.38.16,1.45.86,1.25,6.9C148.44,58.06,148.39,59.61,148,60.8Z" transform="translate(-13.98 -24.36)"/><polygon class="cls-1" points="126.78 21.76 138.25 7.64 130.02 22.77 132.49 24.38 139.34 8.55 133.78 26.71 130.02 24.95 127.59 22.79 126.78 21.76"/><ellipse class="cls-2" cx="137.65" cy="50.06" rx="3.36" ry="1.41" transform="translate(4.81 111.29) rotate(-55.74)"/><path class="cls-3" d="M138.45,46a20.43,20.43,0,0,0-.53-7.95c-1.5-5.49-6-12.84-11.54-13.15-7.9-.44-13.91,13.87-16.06,19a58.47,58.47,0,0,0-4.12,16.74A75.79,75.79,0,0,0,109.64,92" transform="translate(-13.98 -24.36)"/><path class="cls-3" d="M137.47,46.81c.2-.67,1.35-4.6-.86-8-2.55-3.88-8-4.67-11.52-3.24-6.15,2.51-6.68,12-6.88,15.74a30.6,30.6,0,0,0,3,14.88" transform="translate(-13.98 -24.36)"/><path class="cls-3" d="M135,49.87a30.38,30.38,0,0,0-6.11-7.8c-10.8-9.84-27.1-9.85-38.37-6.27C85.93,37.26,72,42.56,65,57.51a41.25,41.25,0,0,0-2.9,25.38" transform="translate(-13.98 -24.36)"/><path class="cls-3" d="M133.18,54.3a37.25,37.25,0,0,0-9.48-4.89A40.91,40.91,0,0,0,92.06,52C76.53,60.54,68.4,84.52,76.62,108.87" transform="translate(-13.98 -24.36)"/><path class="cls-3" d="M136.06,55.38a82.28,82.28,0,0,0-11.32,7.47c-3.5,2.75-20.75,16.77-27.28,38.78a102.75,102.75,0,0,0-3.87,28.58" transform="translate(-13.98 -24.36)"/><path class="cls-3" d="M148,51.09A12,12,0,0,1,149.76,55a11.78,11.78,0,0,1,.25,4.31" transform="translate(-13.98 -24.36)"/><path class="cls-3" d="M148,51.26a4.07,4.07,0,0,1,1.78.59,4.53,4.53,0,0,1,1.92,2.93,3.63,3.63,0,0,1,.09.6" transform="translate(-13.98 -24.36)"/><path class="cls-3" d="M147.82,51.45a2.57,2.57,0,0,1,1.69-1.06,3,3,0,0,1,2,.66,4.68,4.68,0,0,1,1.15,1.06" transform="translate(-13.98 -24.36)"/><path class="cls-3" d="M142.51,45.26a3.37,3.37,0,0,0-1.32-2.09,6.1,6.1,0,0,0-1.54-.6c-.32-.09-.59-.14-.78-.18" transform="translate(-13.98 -24.36)"/><path class="cls-3" d="M140.94,45.09a3.69,3.69,0,0,0-1-1.15,4.53,4.53,0,0,0-3.9-.54" transform="translate(-13.98 -24.36)"/><path class="cls-3" d="M140.48,45.55a4.82,4.82,0,0,0-1.55-1,5.56,5.56,0,0,0-4.18.2" transform="translate(-13.98 -24.36)"/><path class="cls-1" d="M127.13,70c.29-2.08-41.63-22.09-69.1-9.79-47.27,21.18-42.48,137-39.13,137.58.87.15,2.94-7.23,3.78-10.24a81.71,81.71,0,0,0,3-24.08c-.44-22.85-1.14-59,18.11-82.09C48.41,75.85,54,69.1,63.54,66.35c14.59-4.23,36.13,1.61,52.58,4.51a23.81,23.81,0,0,0,4.25.34C123.16,71.17,127.05,70.62,127.13,70Z" transform="translate(-13.98 -24.36)"/><path class="cls-1" d="M91.05,70.93c-.06-.81-9.92-2.26-19.26.31C56.53,75.44,48.19,88.89,44,95.7c-4.4,7.1-16.8,29.81-9.78,58.09,6.54,26.38,26,41.58,26.9,41,.64-.44-7-10-13.76-28.43-2.77-7.59-4.44-12.14-5.19-18.65-1.89-16.24,3.66-29.18,6.72-36.07C52.37,103.7,56.9,98,66,86.53c4.62-5.83,8-9.37,13.15-11.93C85.46,71.49,91.1,71.55,91.05,70.93Z" transform="translate(-13.98 -24.36)"/><path class="cls-1" d="M97.78,82.25c-.55-1.53-6.31-1.24-11,0C73.84,85.64,66.53,96.8,63.54,101.51c-3.63,5.7-13.06,20.53-8.87,38.82C57.8,154,68.86,171.11,81.58,170.91c14.92-.24,25.69-24.2,25.37-24.46a39.34,39.34,0,0,1-12.53,10.7c-3.57,1.87-8,4.19-13.46,3.36-7.29-1.11-11.6-7.18-13.45-9.78-6.55-9.22-5.57-19.62-5.19-23.54a41.67,41.67,0,0,1,8.56-21.4C73.49,102.35,76,100.23,81,96,91.62,87,98.42,84,97.78,82.25Z" transform="translate(-13.98 -24.36)"/><path class="cls-1" d="M101.45,98.45c-1-1-10.27,3.15-14.68,11.31-6.6,12.25-1,31,5.81,32.1,8.72,1.42,19.88-26.41,18.65-27.21-1-.63-10.31,15.85-15,14.07C93.09,127.5,92.85,118.17,95,111,97.41,103.12,102.25,99.29,101.45,98.45Z" transform="translate(-13.98 -24.36)"/><path class="cls-3" d="M144,51a81.93,81.93,0,0,1,9.6,9.58c2.89,3.4,17,20.58,19,43.45a100.46,100.46,0,0,1,.06,14.36,102.74,102.74,0,0,1-2,14.42" transform="translate(-13.98 -24.36)"/><path class="cls-1" d="M149.83,67.17c.13-2.1,45.2-13.32,69.65,4.22,42.1,30.2,14.25,142.72,10.85,142.63-.88,0-1.43-7.68-1.66-10.79A81.81,81.81,0,0,1,230.56,179c5-22.31,12.91-57.59-1.34-84-3.43-6.38-7.6-14.11-16.35-18.71-13.45-7-35.73-5.64-52.43-6.09a21.93,21.93,0,0,1-4.22-.51C153.49,69.09,149.79,67.78,149.83,67.17Z" transform="translate(-13.98 -24.36)"/><path class="cls-1" d="M185,75.28c.23-.78,10.18-.24,18.81,4.15,14.12,7.17,19.6,22,22.38,29.52,2.89,7.84,10.5,32.57-2,58.87-11.68,24.54-33.8,35.55-34.55,34.77-.54-.57,8.87-8.39,19.17-25.11,4.23-6.88,6.77-11,8.82-17.24,5.09-15.53,2.24-29.32.62-36.69-1.86-8.43-5.16-15-11.77-28-3.36-6.64-5.91-10.77-10.5-14.32C190.36,76.94,184.82,75.87,185,75.28Z" transform="translate(-13.98 -24.36)"/><path class="cls-1" d="M176.14,85c.85-1.39,6.43,0,10.79,2.2,12,5.91,16.92,18.3,18.91,23.51,2.42,6.32,8.69,22.73.93,39.82-5.79,12.76-20.05,27.32-32.47,24.58-14.58-3.21-20.34-28.85-20-29a39.44,39.44,0,0,0,10.15,13c3.12,2.54,7,5.71,12.5,6,7.38.36,12.81-4.72,15.14-6.9,8.26-7.73,9.38-18.11,9.8-22a41.8,41.8,0,0,0-4.11-22.68c-1.88-3.89-3.89-6.46-7.93-11.6C181.24,90.87,175.16,86.62,176.14,85Z" transform="translate(-13.98 -24.36)"/><path class="cls-1" d="M169.31,100.16c1.19-.83,9.43,5.14,12.12,14,4,13.32-5.27,30.56-12.11,30.29-8.82-.35-14.2-29.85-12.84-30.39,1.1-.43,7,17.59,11.87,16.78,3.35-.56,5.44-9.66,4.74-17.13C172.33,105.54,168.36,100.82,169.31,100.16Z" transform="translate(-13.98 -24.36)"/><path class="cls-1" d="M145.12,155.9c2.08,8.78,5.21,15.54,1.82,23.14-2.22,5-7.57,11.07-14.07,10.7-7.49-.43-11.68-9.2-12.23-10.4-3.8-8.25-.78-15.73,1.23-25.07,5.07-23.63-3.48-26.37,1.22-52.89.22-1.22,5.42-29.84,11.66-29.69s10.14,29,10.35,30.61C148.76,130.3,139.85,133.73,145.12,155.9Z" transform="translate(-13.98 -24.36)"/><path class="cls-4" d="M116.67,186.07A87.4,87.4,0,0,0,91.6,210.53a89.52,89.52,0,0,0-15,50.75" transform="translate(-13.98 -24.36)"/><path class="cls-4" d="M121.56,186.38a102.49,102.49,0,0,0-13.15,20.17C95.34,233,97.08,258.62,98.94,271.37" transform="translate(-13.98 -24.36)"/><path class="cls-4" d="M126.15,190.35" transform="translate(-13.98 -24.36)"/><path class="cls-4" d="M126.76,192.18a225,225,0,0,0-3.67,78.58" transform="translate(-13.98 -24.36)"/><path class="cls-4" d="M138.07,194.32A154,154,0,0,1,144.8,220a156.16,156.16,0,0,1,0,52.28" transform="translate(-13.98 -24.36)"/><path class="cls-4" d="M146,187a84.09,84.09,0,0,1,16.81,21.4c14.61,26.6,10.26,53.51,8.26,63" transform="translate(-13.98 -24.36)"/><path class="cls-4" d="M122.78,191.57a43.42,43.42,0,0,0-5.19,18.35c-1.49,30.56,32.23,50.39,33.93,51.36" transform="translate(-13.98 -24.36)"/><path class="cls-4" d="M142.35,192.18c6.16,7.79,7.32,14.19,7.34,18.35.09,20.46-27.09,42.05-68.79,50.14" transform="translate(-13.98 -24.36)"/><path class="cls-4" d="M113.31,203.8a59.67,59.67,0,0,1-4,11.62c-6,13-14.12,17.88-20.18,25.68-4.83,6.24-10,16.39-10.39,33.33" transform="translate(-13.98 -24.36)"/><path class="cls-4" d="M134.4,194.63c-1.42,3.56-3,9.19-1.53,15.29,2.84,11.43,14.14,14.3,22.63,24.76,4.73,5.83,10,15.73,10.09,33" transform="translate(-13.98 -24.36)"/><path class="cls-4" d="M102.91,169.87c-3.83,2.21-9.62,5.65-16.51,10.09-21.58,13.89-34.24,22-46.47,36.38-5.33,6.24-14.5,17.19-20.18,34.24a93.61,93.61,0,0,0-4.28,19.87" transform="translate(-13.98 -24.36)"/><path class="cls-4" d="M159.17,174.45a135.35,135.35,0,0,1,18,11.62c24,18.35,35.76,40.17,41,50.14a166.33,166.33,0,0,1,13.15,33.63" transform="translate(-13.98 -24.36)"/><path class="cls-4" d="M101.08,180c-4.8,10.28-10.76,15.64-15.6,18.65-8.45,5.25-14.51,4-22,9.47-7.25,5.28-10.72,13.09-12.53,19.26" transform="translate(-13.98 -24.36)"/><path class="cls-4" d="M158.55,183.62A47.23,47.23,0,0,0,165,194.94c5.91,7.66,11.45,9.79,16.82,14.67,4.49,4.08,9.77,10.92,12.84,22.93" transform="translate(-13.98 -24.36)"/><path class="cls-3" d="M131.88,64A40.57,40.57,0,0,0,122,72.72,43.56,43.56,0,0,0,114,89a45.77,45.77,0,0,0-.23,21.55" transform="translate(-13.98 -24.36)"/><path class="cls-3" d="M129.13,46.58A46.05,46.05,0,0,0,84,78.68" transform="translate(-13.98 -24.36)"/></svg>