<svg id="圖層_1" data-name="圖層 1" xmlns="http://www.w3.org/2000/svg" viewBox="0 0 230.75 229.57"><defs><style>.cls-1,.cls-2,.cls-3,.cls-4{stroke:#000;stroke-miterlimit:10;}.cls-2,.cls-3{fill:none;}.cls-3,.cls-4{stroke-width:3px;}</style></defs><title>up2</title><ellipse class="cls-1" cx="139.81" cy="80.16" rx="30.2" ry="23.49" transform="translate(34.15 211.56) rotate(-88.33)"/><path class="cls-2" d="M125.85,87.14a112.39,112.39,0,0,0-15.45,23.39c-16.27,33-12.18,66.34-9.59,87.34a219.42,219.42,0,0,0,5.84,30" transform="translate(-21.47 -6.03)"/><path class="cls-2" d="M127.21,97.92a160,160,0,0,0-.93,32.2c.64,8.94,2,26,9.78,44.6,10.54,25.23,27.85,41.41,39.16,50.16" transform="translate(-21.47 -6.03)"/><path class="cls-2" d="M139.47,103.65a186.1,186.1,0,0,1-.28,32.56c-1.24,12.87-3.52,34.53-15.8,58.62a144.11,144.11,0,0,1-30.72,40.4" transform="translate(-21.47 -6.03)"/><path class="cls-2" d="M145.71,96.78a65.67,65.67,0,0,0,7,26.06c8.55,16.58,21.7,23.16,29.35,29.72,12.1,10.36,23.42,31.74,18.81,80.45" transform="translate(-21.47 -6.03)"/><path class="cls-2" d="M146.22,90.75c15.91-.7,27.25,3,34.72,6.72,36,17.76,54.34,70,45.55,130.57" transform="translate(-21.47 -6.03)"/><path class="cls-2" d="M150.09,96.24c9.27,3.1,15.2,7.65,19.12,12,20.92,23,14,71.64-17.61,120.68" transform="translate(-21.47 -6.03)"/><path class="cls-2" d="M127,94.22c-.51,7-2.38,17.06-9.46,25.24-15.53,18-40.82,9.23-58.64,19.45-14.68,8.41-27.86,31.73-22.94,96" transform="translate(-21.47 -6.03)"/><path class="cls-2" d="M124.86,75A110.5,110.5,0,0,0,91.61,98.57c-46.52,48.32-30.31,123.34-28,133.13" transform="translate(-21.47 -6.03)"/><path class="cls-1" d="M125.25,73c-.1,2.21-22.89-3.74-48.91,8-36.87,16.61-48.41,54.37-52.88,52.18-4.27-2.09-.47-39.7,25.87-58.33C80.49,52.79,125.39,69.91,125.25,73Z" transform="translate(-21.47 -6.03)"/><path class="cls-1" d="M148.36,73.75c.1,2.21,22.89-3.77,48.92,7.91,36.89,16.56,48.48,54.3,52.95,52.1,4.27-2.09.41-39.69-25.95-58.29C193.09,53.45,148.21,70.64,148.36,73.75Z" transform="translate(-21.47 -6.03)"/><path class="cls-3" d="M131.75,57.43c-2.42-3.42-5.74-6.69-10.19-7.68-14.77-3.29-32,20.71-39,35.46-14,29.78-4.12,60.7.25,72.19" transform="translate(-21.47 -6.03)"/><path class="cls-3" d="M134.85,54.5a24.54,24.54,0,0,0-5-13.23c-2.12-2.73-4.3-5.55-6.56-5.57-7.34-.06-15.51,29.65-17,54.9-.86,14.17-.14,35.51,8.62,61.35" transform="translate(-21.47 -6.03)"/><path class="cls-3" d="M143.63,52.74c.41-8,3.43-14.32,7.84-15.55,6.52-1.81,13.76,8.16,15.47,10.52,16.9,23.3,4,60,.67,69.52a128.29,128.29,0,0,1-18.46,34.37" transform="translate(-21.47 -6.03)"/><path class="cls-3" d="M147.52,57.56a25.42,25.42,0,0,1,8.17-3.79s11.91-3.08,28,7.19c15.87,10.13,28.44,46.09,29.83,93.86" transform="translate(-21.47 -6.03)"/><circle class="cls-4" cx="119.12" cy="18.47" r="7.89"/><path class="cls-4" d="M129,24.16s-3.57,3.89-5,4.31-6.3,2.11-6.3,2.11" transform="translate(-21.47 -6.03)"/><polyline class="cls-4" points="130.7 18.81 134.25 22.28 140.14 24.68"/><line class="cls-4" x1="109.14" y1="10.29" x2="105.26" y2="4.62"/><path class="cls-4" d="M143.2,12.74s-.44-5.06.16-5.5" transform="translate(-21.47 -6.03)"/><line class="cls-4" x1="128.54" y1="10.86" x2="133.7" y2="5.45"/></svg>