<svg id="圖層_1" data-name="圖層 1" xmlns="http://www.w3.org/2000/svg" viewBox="0 0 270.1 271.65"><defs><style>.cls-1,.cls-2,.cls-3,.cls-4,.cls-5,.cls-6,.cls-7{stroke:#000;stroke-miterlimit:10;}.cls-1,.cls-4{stroke-width:0.5px;}.cls-3{fill:#fff;}.cls-4,.cls-5,.cls-6{fill:none;}.cls-6,.cls-7{stroke-width:2px;}</style></defs><title>left2</title><path class="cls-1" d="M200.55,76.32c-.29,1-1.91,1.33-5.13,1.74-5.79.75-8.69,1.12-9.69,1-6.27-1-10.27-5.94-11-6.82-4.52-5.71-7.49-16.05-3.71-20.44,4.43-5.14,15.61.83,18.81,2.54a36.24,36.24,0,0,1,9,6.76c2.26,2.4,3.52,4.68,3,6.09-.64,1.74-3.75,1.39-4.14,3.31C197.26,72.66,201.05,74.57,200.55,76.32Z" transform="translate(-15.35 -7.75)"/><polygon class="cls-2" points="183.68 54.37 203.97 63.08 181.73 60.76 189.57 73.59 178.88 63.51 183.68 54.37"/><ellipse class="cls-3" cx="186.02" cy="56.7" rx="1.87" ry="4.43" transform="translate(46.15 198.33) rotate(-67.14)"/><path class="cls-2" d="M155.88,54.82c.22-.35-9.67-9.33-24.54-15.6-10.83-4.56-24.07-10.14-37.6-5.73-3.48,1.14-9.36,4.73-21.1,11.93-5.65,3.45-6.35,4.11-13.1,8.17-7.83,4.72-16,9.48-16,9.48-8.65,5-10.75,6.14-10.55,6.65.39,1,8.83-1.14,15.82-3.67a111,111,0,0,0,17-8C73.32,53.88,78.57,51,85,46.1c3.56-2.69,5.07-4.18,8.49-5.73,2.74-1.24,6.9-2.63,13.76-2.75,5.06-.09,13.89.46,27.74,6.19C148.07,49.21,155.68,55.11,155.88,54.82Z" transform="translate(-15.35 -7.75)"/><path class="cls-4" d="M196.47,62.07a17.78,17.78,0,0,0-4.42-8.56,14.67,14.67,0,0,0-8.41-4.43" transform="translate(-15.35 -7.75)"/><path class="cls-4" d="M197.13,61.38a11.65,11.65,0,0,0-.14-4.54,11.32,11.32,0,0,0-3.85-6.07,10.63,10.63,0,0,0-1.85-1.27" transform="translate(-15.35 -7.75)"/><path class="cls-4" d="M197.66,61.17a5.23,5.23,0,0,0,1.9-2.69c.67-2.37-.66-4.56-1.19-5.44a8.44,8.44,0,0,0-1.81-2.12" transform="translate(-15.35 -7.75)"/><path class="cls-5" d="M193.76,76.91a6.46,6.46,0,0,1-.67,2.9c-1.51,3-5.57,4.41-10.16,3.49" transform="translate(-15.35 -7.75)"/><path class="cls-5" d="M195.8,77a6.27,6.27,0,0,1,.1,2.17,7.46,7.46,0,0,1-3.14,4.75,9.13,9.13,0,0,1-2.09,1.27" transform="translate(-15.35 -7.75)"/><path class="cls-5" d="M196.9,76.75a9.43,9.43,0,0,1,1,2.9,10.14,10.14,0,0,1-.71,5.66" transform="translate(-15.35 -7.75)"/><path class="cls-2" d="M156.49,70.63c.31-.68-9.94-8.65-23.39-11.92-8.13-2-20.84-3.07-61.91,13.75C68.09,73.74,23,92.3,24.41,96.31c.72,2,13-.32,20.18-2.29,3.16-.87,7.46-2.24,22.93-9.63,16.58-7.92,17.42-9.11,25.23-11.93A127.63,127.63,0,0,1,113.38,67c7.47-1.33,13.47-2.41,21.1-1.83C147.54,66.11,156.22,71.24,156.49,70.63Z" transform="translate(-15.35 -7.75)"/><path class="cls-2" d="M148.24,84.85c-.36-1.48-20.36.14-42.65,6.88-16.28,4.92-55.26,16.7-77.51,50.44-7.66,11.63-13.68,26.38-11.92,27.52,1.61,1,10.1-9,13.3-12.84,7-8.29,8.35-11.7,14.22-18.81a119.26,119.26,0,0,1,15.59-15.59c10.85-8.72,21.29-12.11,30.27-15.13C94.29,105.72,148.84,87.36,148.24,84.85Z" transform="translate(-15.35 -7.75)"/><path class="cls-2" d="M151.45,122.78c0-.39-31.53-6.6-49.53,11-12.72,12.43-18.3,36.35-7.8,50.44,9.75,13.1,30.3,13.62,31.19,11.47.79-1.94-14.56-5.87-19.27-19.26-1.71-4.89-1.29-9.22-.45-17.89.81-8.4,1.48-15.33,6.42-21.09,1.21-1.42,3.62-3.87,11.46-7.34A93.39,93.39,0,0,1,151.45,122.78Z" transform="translate(-15.35 -7.75)"/><path class="cls-2" d="M172,71.75c-1.69-.63-9.32,10.89-13.36,23.22-12.48,38.13,7.08,91.26,43,109.66,14.78,7.57,31.61,8.9,32.11,7.45.41-1.22-10.7-4.86-26.66-14.71-12.18-7.52-19.76-12.2-27.12-21.14a73.65,73.65,0,0,1-15.51-33.91c-1.7-10.37-.64-18.56,1.55-34.51C169.09,85.22,173.65,72.39,172,71.75Z" transform="translate(-15.35 -7.75)"/><path class="cls-2" d="M174.33,82c.72-.79,6,3.4,9.28,6a148.7,148.7,0,0,1,18.61,17.65c6.95,7.83,11.83,13.34,16,20.19,9.3,15.13,11,29.74,13.28,52.54,2.13,20.91,1.8,40,.67,40.07-.94.05-1.88-13.1-6.86-38.44-4.06-20.61-6.29-26.43-7.27-28.87-3-7.34-7-13.87-15.12-26.93-4.66-7.5-9.14-14.73-15.9-24.06C179.11,89.15,173.53,82.87,174.33,82Z" transform="translate(-15.35 -7.75)"/><path class="cls-2" d="M175.3,103.39c-1.5,0-2.83,10.19-3.21,16.51-.5,8.43-1.36,22.81,6,37.14,9.92,19.42,29.55,28.35,30.27,27.52.32-.38-3-3-9.17-10.55-4.1-5.06-8.72-10.75-12.84-18.8s-7.33-14.29-7.8-22.93c-.34-6.3.81-12.83-1.38-23.85C176.45,105,175.89,103.39,175.3,103.39Z" transform="translate(-15.35 -7.75)"/><path class="cls-2" d="M192.22,128.24c-1.05-.12-7.85,14.19-.91,22.48,5.37,6.42,16.14,5.79,16.51,4.58s-7.65-2-12.39-8.71C189.76,138.52,193.11,128.35,192.22,128.24Z" transform="translate(-15.35 -7.75)"/><polygon class="cls-2" points="194.29 95.97 200.08 82.22 223.17 82.22 208.73 84.51 202.89 86.8 200.57 90.99 194.29 95.97"/><polygon class="cls-2" points="205.22 88.87 220.51 86.34 204.15 95.41 198.46 95.75 205.22 88.87"/><polygon class="cls-2" points="198.97 98.07 207.53 97.08 212.26 95.75 215.27 93.33 220.51 89.78 215.24 98.11 205.84 98.07 198.97 98.07"/><path class="cls-2" d="M217.8,103" transform="translate(-15.35 -7.75)"/><polygon class="cls-2" points="211.91 113.36 217.7 99.6 240.79 99.6 226.35 101.89 220.51 104.18 218.19 108.37 211.91 113.36"/><polygon class="cls-2" points="222.84 106.25 238.13 103.73 221.78 112.8 216.08 113.14 222.84 106.25"/><polygon class="cls-2" points="216.59 115.46 225.15 114.46 229.88 113.14 232.89 110.71 238.13 107.16 232.86 115.49 223.47 115.45 216.59 115.46"/><path class="cls-2" d="M224.08,123.17" transform="translate(-15.35 -7.75)"/><path class="cls-2" d="M197.89,133.87c.53-.51,5.81,3.07,10.39,8.25,12.47,14.12,17.64,37.71,8.56,48.92-2,2.42-5,4.83-5.81,4.28-.94-.68,2.47-5.26,4-12.53a39.19,39.19,0,0,0,0-14.68,52.39,52.39,0,0,0-5.81-16.51C203.57,140.52,197.25,134.48,197.89,133.87Z" transform="translate(-15.35 -7.75)"/><path class="cls-6" d="M197.69,209.61a81.42,81.42,0,0,0-22.93,8.71c-24.58,14-44.12,42.58-37.15,54.12,1.51,2.5,4.9,5.25,13.3,6" transform="translate(-15.35 -7.75)"/><path class="cls-6" d="M206.4,215.57c-10.45,3.05-13.32,7.2-14.22,10.09-4.41,14.28,25.57,42.51,58.25,46.78a70.77,70.77,0,0,0,23.39-.92" transform="translate(-15.35 -7.75)"/><path class="cls-6" d="M222.91,217.87c-22.28-6.42-42.55,8.41-44.48,24.3-1.85,15.21,12.83,33.68,34.85,34.4" transform="translate(-15.35 -7.75)"/><path class="cls-6" d="M236.67,226.58c.35,2.5,2.1,12.92,11,19.26,10.15,7.24,25.47,6.23,37.14-3.21" transform="translate(-15.35 -7.75)"/><path class="cls-6" d="M227.5,223.37c-2.44,1.15-8.66,4.47-10.09,10.55-2.24,9.44,8.81,18.25,12.38,21.09,18.17,14.49,44.19,8.71,51.36,6.88" transform="translate(-15.35 -7.75)"/><ellipse class="cls-7" cx="203.97" cy="18.89" rx="3.84" ry="17.89"/><circle class="cls-7" cx="203.97" cy="48.3" r="3.33"/></svg>