<svg id="圖層_1" data-name="圖層 1" xmlns="http://www.w3.org/2000/svg" viewBox="0 0 204.69 116.71"><defs><style>.cls-1,.cls-2,.cls-3,.cls-4{stroke:#000;stroke-miterlimit:10;}.cls-2,.cls-4{fill:none;}.cls-3{fill:#fff;}.cls-4{stroke-width:0.5px;}</style></defs><title>往右</title><path class="cls-1" d="M227,127.83c-.25.63-1.4.66-2.4.76a6,6,0,0,0-2,.36c-.91.12-1.35.12-3.06.23l-2.14.15a16,16,0,0,1-6.71-.91,14.88,14.88,0,0,1-4.36-2.69c-2.3-1.9-3.41-2.84-3.31-3.81.26-2.52,5.5-4.42,14-3a10.89,10.89,0,0,1,3.15.6c1.91.79,2,1.47,4.14,2.44a35.13,35.13,0,0,0,3.4,1.74,2.15,2.15,0,0,1,1,.63c.15.18.22.27.23.38,0,.63-1.88.75-2.15,1.74C226.64,127.07,227.19,127.36,227,127.83Z" transform="translate(-31.61 -58.08)"/><path class="cls-2" d="M219.47,121.37a29.73,29.73,0,0,1-9.57-5.61c-4.62-4.06-5.15-7.17-9.24-10.89-4.51-4.08-9.48-5.38-12.87-6.27-9.11-2.38-14.47,0-23.44.66a67.78,67.78,0,0,1-26.73-3.63" transform="translate(-31.61 -58.08)"/><path class="cls-2" d="M213.53,122.36a53.3,53.3,0,0,1-7.92-5,54.78,54.78,0,0,1-9.57-9.24C186,96,187.24,90.41,180.52,84.08c-6.88-6.49-15.47-7.49-27.72-8.91a80.29,80.29,0,0,0-27.39,1.65,81.47,81.47,0,0,0-17.49,6.27" transform="translate(-31.61 -58.08)"/><path class="cls-2" d="M213.89,120.8a77.21,77.21,0,0,0-14.21-4.13c-17.08-3.23-23.54,1.59-37.76.46-18.81-1.5-16.25-10.6-35.47-12.23-14.62-1.24-21.68,3.55-34.85-1.22A45.53,45.53,0,0,1,77.08,95" transform="translate(-31.61 -58.08)"/><path class="cls-2" d="M211.14,125.38a88.76,88.76,0,0,1-17.12-13c-9.78-9.5-9.93-14.1-17.89-20.94-3.5-3-13.84-11-28.58-12.39-14.1-1.27-25,4.23-32.41,8A78.41,78.41,0,0,0,99.7,97.25" transform="translate(-31.61 -58.08)"/><path class="cls-2" d="M210.22,122.48A111.88,111.88,0,0,0,183.32,111c-9.95-2.76-18.3-3.22-35-4.12-22.17-1.21-33.52-1.72-46.62,2.75-6.1,2.08-6.77,3.19-11.31,4C76.51,116,63.69,109,54.76,102.3" transform="translate(-31.61 -58.08)"/><path class="cls-1" d="M225.28,136.85" transform="translate(-31.61 -58.08)"/><path class="cls-2" d="M222.8,121.9a31.36,31.36,0,0,0-4.7-7,32.54,32.54,0,0,0-12-8.37c-3.76-1.6-11.28-3.9-25-1.6-19.47,3.26-34.87,13.08-43.6,19.68" transform="translate(-31.61 -58.08)"/><ellipse class="cls-3" cx="219.91" cy="121.65" rx="1.29" ry="3.01" transform="translate(2.64 232.95) rotate(-71.32)"/><path class="cls-1" d="M198.77,123.53c.22-.48-4.3-3.4-9.32-5.35a62.1,62.1,0,0,0-6.44-2.05,63,63,0,0,0-7.41-1.6,53.92,53.92,0,0,0-11.7-.31,75.8,75.8,0,0,0-11.05,1.45c-7.89,1.6-12.38,3.73-24.55,8.62-13.94,5.61-20.83,8-20.64,8.56s6.4-.76,8.41-1.22c.79-.18,2.32-.53,4.13-1.07,13.33-4,30.57-14.71,48.46-13.76h0a149.14,149.14,0,0,1,15.42,2.85c3.78.92,7.95,2.1,7.95,2.1C197,123.16,198.64,123.81,198.77,123.53Z" transform="translate(-31.61 -58.08)"/><path class="cls-1" d="M186.83,123.55c-4.09-3.21-10.86-3.06-10.86-3.06-8.83.2-13.24.3-20.33,2-5.35,1.27-14.66,4-22.16,9.93-.35.28-3.9,3.44-3.52,4s4.65-1.82,5.51-2.29c2.57-1.43,3.69-2.37,5.5-3.52a42.38,42.38,0,0,1,7.79-3.82c3.72-1.49,8-2.08,16.36-3.21,12.19-1.65,14.16-1.13,15.44-.31a15.75,15.75,0,0,0,5.05,2c.56.12,2.37.49,2.59,0S187.21,123.85,186.83,123.55Z" transform="translate(-31.61 -58.08)"/><path class="cls-1" d="M179.34,127.83a52.83,52.83,0,0,0-8-.61c-7.14-.28-8.64.06-9.78.46-1.68.57-3.18,1.76-6.11,4.12a61.8,61.8,0,0,0-11.16,11.31c-.78,1-3,4-2.6,4.28s3.5-2.28,6-4.89c2.76-2.91,2.64-3.65,5.2-6.11a30,30,0,0,1,5.35-4.13,29.41,29.41,0,0,1,6.57-2.9C172.57,127,179.34,128.05,179.34,127.83Z" transform="translate(-31.61 -58.08)"/><path class="cls-1" d="M177,125.28c-.65.37.74,2.33.19,4.92-.71,3.32-4.07,5.21-6.05,6.29-3.26,1.79-8.54,3.64-17.6,3-11.15-.83-18.21-4.75-18.65-3.82-.35.75,3.89,3.65,8,5.47a38,38,0,0,0,11.71,2.78c4.8.46,10.28,1,16.49-1.19,2-.69,12.22-4.27,12.17-10.07C183.26,128.5,178,124.71,177,125.28Z" transform="translate(-31.61 -58.08)"/><path class="cls-1" d="M202.93,123.31c.34.27-1.57,3.46-3.67,6.12a47.07,47.07,0,0,1-7,7.18,54.47,54.47,0,0,1-9.32,6.12,75.19,75.19,0,0,1-22.78,7.18c-24.23,3.14-48.73-9.88-48.61-10.24,0-.06.74.34,10.47,2.83,10,2.54,14.93,3.82,18.42,4.35a71.86,71.86,0,0,0,21.48.08c8.81-1.38,18.68-4.78,24.38-9.25,3.18-2.5,6.88-5.73,6.88-5.73,3-2.65,4.81-4.28,4.81-4.28C201.6,124.35,202.71,123.13,202.93,123.31Z" transform="translate(-31.61 -58.08)"/><path class="cls-2" d="M110.78,136.69a151.24,151.24,0,0,0-18.57-9.17c-15.49-6.37-28.54-11.73-42.65-7.79a40.52,40.52,0,0,0-16.51,9.4" transform="translate(-31.61 -58.08)"/><path class="cls-2" d="M117.2,135.55a143.77,143.77,0,0,1-23.61-2.07c-15.43-2.64-20.43-6.11-29.81-6.42-7.52-.24-18.37,1.53-31.88,11.24" transform="translate(-31.61 -58.08)"/><path class="cls-2" d="M124.08,139a183,183,0,0,1-35.77.69c-10.59-.87-17.9-2.45-28.43,0a63.8,63.8,0,0,0-18.34,7.56,57.59,57.59,0,0,0-6.88,5" transform="translate(-31.61 -58.08)"/><path class="cls-2" d="M132.57,141.51l-4.36.92c-25.85,5.33-29.89,4.21-42.42,7.79-9.14,2.61-17.34,5.05-25.45,12.16a50.54,50.54,0,0,0-10.09,12.15" transform="translate(-31.61 -58.08)"/><path class="cls-2" d="M128.67,143.57A70.83,70.83,0,0,1,111,156.41c-31.72,16.22-65.73,2.59-73.37-.68" transform="translate(-31.61 -58.08)"/><path class="cls-2" d="M115.83,136.69a48.43,48.43,0,0,0-23.16-14C66.39,116,45,136,43.37,137.61" transform="translate(-31.61 -58.08)"/><path class="cls-2" d="M117.89,147.47a67.29,67.29,0,0,1-13.76,3.67c-24.37,3.81-43.16-7-46.31-8.94a69,69,0,0,1-18.35-16" transform="translate(-31.61 -58.08)"/><path class="cls-2" d="M114,136.46a87.66,87.66,0,0,0-18.8.92c-21.45,3.4-36.68,14.12-44.71,20.87" transform="translate(-31.61 -58.08)"/><path class="cls-2" d="M173.61,112.85" transform="translate(-31.61 -58.08)"/><path class="cls-1" d="M195.82,134.76l6.62,1.54,3.78,3,2.83,6.4.07,7.22L207.36,145,206,141.62l-3.67-4.16s-2.68-.33-2.75-.7S195.82,134.76,195.82,134.76Z" transform="translate(-31.61 -58.08)"/><path class="cls-1" d="M195.93,136.82l2.87,1,2.26,2.1,3.8,3.92a28.21,28.21,0,0,1,.75,2.82c0,.24.85,4.43.85,4.43l.68,2.79-3.55-5.69-.06-2.63-.15-2.2-3.16-2.85Z" transform="translate(-31.61 -58.08)"/><path class="cls-1" d="M194.2,137.81s0,3.18,0,3.33,3.91,3.39,3.91,3.39l4.14,4.28-5.12-3.41-3.74-3.72Z" transform="translate(-31.61 -58.08)"/><path class="cls-1" d="M200.27,130.08l6.62,1.54,3.78,3,2.83,6.4.07,7.22-1.76-7.94L210.47,137l-3.68-4.17s-2.68-.33-2.74-.69S200.27,130.08,200.27,130.08Z" transform="translate(-31.61 -58.08)"/><path class="cls-1" d="M200.37,131.25l2.86,1,2.26,2.1,3.81,3.92a28.21,28.21,0,0,1,.75,2.82c0,.24.85,4.43.85,4.43l.68,2.79L208,142.59,208,140l-.15-2.2-3.16-2.85Z" transform="translate(-31.61 -58.08)"/><polygon class="cls-1" points="108.29 93.87 104.51 95.86 99.04 102.12 95.38 108.08 100.43 102.73 103.32 99.52 108.29 94.94 108.29 93.87"/><path class="cls-1" d="M139.9,155.77s-5.12,5-5.58,4.89-13.6,4.58-13.6,4.58l-4.89.92,5.5.92,10.55-3.52s4.89-2.44,5.35-2.9S139.9,155.77,139.9,155.77Z" transform="translate(-31.61 -58.08)"/><path class="cls-1" d="M137.54,162.64l-8.87,5.05s16.2-.46,16.66,0-10.85-1.53-10.85-1.53Z" transform="translate(-31.61 -58.08)"/><path class="cls-1" d="M189,133.64" transform="translate(-31.61 -58.08)"/><polygon class="cls-1" points="117.61 91.08 113.83 93.07 108.36 99.34 104.69 105.3 109.75 99.95 112.64 96.74 117.61 92.15 117.61 91.08"/><path class="cls-1" d="M149.22,153s-5.12,5.05-5.58,4.89-13.6,4.59-13.6,4.59l-4.89.92,5.5.91,10.55-3.51s4.89-2.45,5.35-2.91S149.22,153,149.22,153Z" transform="translate(-31.61 -58.08)"/><path class="cls-1" d="M146.85,159.86l-8.86,5s16.2-.46,16.66,0-10.85-1.53-10.85-1.53Z" transform="translate(-31.61 -58.08)"/><path class="cls-1" d="M183.93,117.28a383.64,383.64,0,0,0-44-32.71S88,51.51,65,60c-.37.13-4.62,1.69-4.43,2.59s3.89.34,12.23.92c.65.05,3.84.27,8,.77,0,0,3.54.42,6.57.91,5.2.85,16.77,5.08,31.34,12.08" transform="translate(-31.61 -58.08)"/><path class="cls-1" d="M85.93,64.94c-.1-1.29-13.07-2.52-26.05,1.13-1.6.45-9.13,2.56-8.94,3.67.26,1.53,15.29.44,28.66-2.75C83.82,66,86,65.46,85.93,64.94Z" transform="translate(-31.61 -58.08)"/><path class="cls-1" d="M91.75,64.92c-.28-.82-7,.75-12.61,2.07-3.94.92-22,5.17-21.79,6.65.21,1.12,11.08.92,21.79-2.53C85.6,69,92,65.77,91.75,64.92Z" transform="translate(-31.61 -58.08)"/><path class="cls-1" d="M97,64.5c-.7-1.46-11.8,2.21-20.64,6.88C73,73.17,69,75.3,69.27,76.2c.44,1.27,9.68,0,17.89-4.13C91.87,69.67,97.56,65.62,97,64.5Z" transform="translate(-31.61 -58.08)"/><path class="cls-1" d="M99.56,67.26c-.7-1.44-10.37,1.52-18.12,5.27-4.25,2.07-9.52,4.62-9.17,5.74.53,1.66,13.64.52,23.39-6.88C97.12,70.28,100,68.12,99.56,67.26Z" transform="translate(-31.61 -58.08)"/><path class="cls-1" d="M102.76,69.42c-.79-2.23-18.37,1.17-33.25,8.94-2.85,1.49-8.21,4.29-7.8,5.51.56,1.66,11.77-.1,21.33-3.44C92.23,77.21,103.41,71.29,102.76,69.42Z" transform="translate(-31.61 -58.08)"/><path class="cls-1" d="M110.58,71.81c-.47-1.74-18.71.25-36,8.26-5.63,2.6-13.77,7.05-13.3,8.25C61.93,90,78.5,84.94,89,81.21,96.21,78.67,111,73.43,110.58,71.81Z" transform="translate(-31.61 -58.08)"/><path class="cls-1" d="M117.43,75.81c-.15-1.42-14.94-1.22-26.6-.23C74.92,76.93,57.19,80.39,57.35,82s18,1.42,33.71-.46C103,80.11,117.58,77.22,117.43,75.81Z" transform="translate(-31.61 -58.08)"/><path class="cls-1" d="M124.19,80.28c0-1.53-16.58-3.48-33.7-2.53-21,1.18-40.14,6.58-39.9,8.26s19.69.09,40.58-1.61C109.3,82.93,124.21,81.72,124.19,80.28Z" transform="translate(-31.61 -58.08)"/><path class="cls-1" d="M131.85,82c-.09-.95-10.1-.72-15.36-.46-16.53.81-33.17,4.21-33,5.5s15.13.66,26.83-.69C120.13,85.21,132,83,131.85,82Z" transform="translate(-31.61 -58.08)"/><path class="cls-1" d="M139.9,86.22c-.32-2-13.25-2-23.85-.45C103.85,87.5,90,91.86,90.37,94s15.28,2.18,28.2-.23C128.3,92,140.21,88.2,139.9,86.22Z" transform="translate(-31.61 -58.08)"/><path class="cls-1" d="M145,90.42c-1.77,0-4.12-.06-6.88,0-19.72.4-41.18,4.32-41,6.65.11,1.84,13.85,3.72,26.83,1.37A62.37,62.37,0,0,0,145,90.42Z" transform="translate(-31.61 -58.08)"/><path class="cls-1" d="M160.65,100.6c.34-2.15-16.72-7.6-33.94-9.86-27.09-3.55-52.54,1.08-52.51,3.67,0,2,16.09,3.28,42.2,5.27C137.49,101.3,160.26,103,160.65,100.6Z" transform="translate(-31.61 -58.08)"/><path class="cls-1" d="M170.52,106.69c.22-2-21-6.44-39.67-8.48-21.52-2.35-45.43-2.19-45.63,0s24.27,6.61,44.71,8.48C147.64,108.31,170.29,108.79,170.52,106.69Z" transform="translate(-31.61 -58.08)"/><path class="cls-1" d="M178.69,114.77c.31-1.8-19.21-8.54-41.74-9.63-20.9-1-39.76,3.06-39.67,4.81.07,1.18,8.68,1,39.44,2.76C169.84,114.62,178.48,115.94,178.69,114.77Z" transform="translate(-31.61 -58.08)"/><path class="cls-1" d="M223.49,125.1l0,1.52,0,1.42,3.53.74,3.13.57,1.69.16-3.6-1.51-1.41-.66-.57-.65Z" transform="translate(-31.61 -58.08)"/><polyline class="cls-1" points="184.91 64.84 193.11 65.27 196.37 65.89 197.94 66.74 199.49 68.28 201.54 70.49 198.2 68.28 196.77 67.45 195.13 67.08 190.76 66.11 184.79 64.84"/><path class="cls-4" d="M227.41,124.34a4.74,4.74,0,0,0-.57-2.52,4.65,4.65,0,0,0-1.35-1.52" transform="translate(-31.61 -58.08)"/><path class="cls-4" d="M226.49,123.91a3.59,3.59,0,0,0-.57-2.26,3.75,3.75,0,0,0-1.86-1.47" transform="translate(-31.61 -58.08)"/><path class="cls-4" d="M224.89,123a2.86,2.86,0,0,0-.46-1.89,3,3,0,0,0-.89-.83" transform="translate(-31.61 -58.08)"/><path class="cls-4" d="M223,131.26" transform="translate(-31.61 -58.08)"/><path class="cls-2" d="M224.37,127.67a5.41,5.41,0,0,1-.74,2.26,5.34,5.34,0,0,1-3.21,2.44,4.79,4.79,0,0,1-1.26.11" transform="translate(-31.61 -58.08)"/><path class="cls-2" d="M225.49,128.21a8.51,8.51,0,0,1-.69,2,5.15,5.15,0,0,1-2,2.49,4.21,4.21,0,0,1-1.18.43" transform="translate(-31.61 -58.08)"/><path class="cls-2" d="M226.61,128.18a6.55,6.55,0,0,1-.35,2,6.76,6.76,0,0,1-2.8,3.46" transform="translate(-31.61 -58.08)"/><path class="cls-2" d="M223.94,127.94a8.14,8.14,0,0,1-2.4,2,8.87,8.87,0,0,1-6.39.63" transform="translate(-31.61 -58.08)"/></svg>